<svg xmlns="http://www.w3.org/2000/svg" xmlns:xlink="http://www.w3.org/1999/xlink" width="2000" zoomAndPan="magnify" viewBox="0 0 1500 1499.999933" height="2000" preserveAspectRatio="xMidYMid meet" version="1.0"><defs><g/><clipPath id="bc63243fe6"><rect x="0" width="1130" y="0" height="1176"/></clipPath></defs><rect x="-150" width="1800" fill="#ffffff" y="-149.999993" height="1799.99992" fill-opacity="1"/><rect x="-150" width="1800" fill="#efede7" y="-149.999993" height="1799.99992" fill-opacity="1"/><g transform="matrix(1, 0, 0, 1, 185, 162)"><g clip-path="url(#bc63243fe6)"><g fill="#c9102e" fill-opacity="1"><g transform="translate(0.656175, 929.684468)"><g><path d="M 48.90625 -690.515625 L 499.796875 -690.515625 L 499.796875 -529.125 L 217.125 -529.125 L 217.125 -433.28125 L 493.921875 -433.28125 L 493.921875 -270.921875 L 217.125 -270.921875 L 217.125 -161.375 L 500.765625 -161.375 L 500.765625 0 L 48.90625 0 Z M 48.90625 -690.515625 "/></g></g></g><g fill="#c9102e" fill-opacity="1"><g transform="translate(546.412961, 929.684468)"><g><path d="M 29.34375 0 L 29.34375 -117.375 L 324.71875 -536.953125 L 29.34375 -536.953125 L 29.34375 -690.515625 L 538.90625 -690.515625 L 538.90625 -568.25 L 250.390625 -154.53125 L 542.828125 -154.53125 L 542.828125 0 Z M 29.34375 0 "/></g></g></g></g></g></svg>